# xmcd
#
# Track frame offsets:
# 150
# 21244
# 41532
# 53860
# 75310
# 101467
# 118156
# 133343
# 145382
# 158103
#
# Disc length: 2294 seconds
#
#
# Revision: 0
# Processed by: cddbd v1.5.2PL0 Copyright (c) Steve Scherf et al.
# Submitted via: FreeRIP 2.951 
#
DISCID=8408f40a
DTITLE=Boom Boom Steve V. and teh Knockouts - Tuff Love
DYEAR=2009
DGENRE=Blues
TTITLE0=Come Out Swinging
TTITLE1=10 Cent Milliionaire
TTITLE2=When I Was Young
TTITLE3=Tuff Love
TTITLE4=My Name is Meth
TTITLE5=Come Back Baby
TTITLE6=From Stardom to Obscurity
TTITLE7=HNC
TTITLE8=Sneakin' Out
TTITLE9=Sad Hours
EXTD=Steve Vonderharr\nwww.bluesonstage.com/stevev
EXTT0=
EXTT1=
EXTT2=
EXTT3=
EXTT4=
EXTT5=
EXTT6=
EXTT7=
EXTT8=
EXTT9=
PLAYORDER=
